<svg xmlns="http://www.w3.org/2000/svg" 
    viewBox="0 0 413.5 732">
    <defs><style>.cls-1{fill:#61c7ed;}.cls-1,.cls-2,.cls-3{stroke:#000;stroke-miterlimit:10;}
                .cls-2{fill:#f5eee7;}.cls-3{fill:#41444f;}
          </style>
    </defs>
                <title>SignUp</title>
    <path class="cls-1" d="M205.59,729.62c.33-2.1.66-4.21,1-6.32,0,0,0-.25.06-.42l.06-.4c.08-
    .53.15-1.05.23-1.58.14-1,.27-1.94.41-2.92q.88-6.37,1.73-12.75c2.27-17.05,4.53-34.14,8.58-
    50.93a194.25,194.25,0,0,1,19.53-50.43,109.67,109.67,0,0,1,24.7-30.42,134.52,134.52,0,0,1,
    32.06-19.72,216.25,216.25,0,0,1,38-12.59,354.54,354.54,0,0,1,41.57-7c12.44-1.42,25-2.31,
    37.48-2.87V129.52a261.83,261.83,0,0,0-39.25-5.59,310.4,310.4,0,0,0-60.65,1.2c-36.14,4.48-70.52,
    16.34-100.68,35.22a262.58,262.58,0,0,0-42,33.07c-13.47,12.89-25.53,27-38.5,40.29-25,25.67-52.26,
    50.62-85,67.91A186.51,186.51,0,0,1,0,318.57V731H205.36C205.44,730.54,205.51,730.08,205.59,729.62Z"
transform="translate(0.5 0.5)"/>
<path class="cls-2" d="M405.38,533.27c-7.25.38-14.49.86-21.72,1.5q-5.
45.48-10.87,1.06l-2.9.33-1.35.16-.15,0c-1.71.22-3.43.43-5.14.66a325.87,325.87,0,0,0-42.05,8.26c-6.61,
1.79-13.13,3.84-19.52,6.21l-.86.33-.51.19-2.15.86q-2.31.93-4.58,1.92-4.51,2-8.87,4.17c-2.92,1.48-5.79,
3.06-8.58,4.72-1.37.82-2.71,1.65-4,2.51l-2,1.3-1,.66-.13.09A135,135,0,0,0,254.85,580c-1.1,1.08-2.18,
2.19-3.22,3.31-.53.57-1,1.14-1.55,1.71l-.75.85h0c-2,2.4-3.87,4.84-5.62,7.38a162.16,162.16,0,0,0-12.95,
22.88l-.3.64c-.1.22-.2.45-.31.68-.24.53-.48,1.07-.71,1.6-.44,1-.86,2-1.28,3-.89,2.12-1.74,4.26-2.55,
6.4-1.63,4.31-3.09,8.66-4.42,13.05a261,261,0,0,0-6.26,25.75c-.84,4.3-1.59,8.61-2.28,12.93q-.52,3.23-1,
6.46l0,.17c0,.23-.06.46-.1.69-.08.54-.16,1.09-.23,1.63-.15,1-.29,2-.43,3-1.23,8.73-2.35,17.47-3.6,26.19q-.9
,6.36-1.91,12.7H411V533C409.13,533.08,407.25,533.17,405.38,533.27Z" transform="translate(0.5 0.5)"/>
<path class="cls-3" d="M8,315.66a198.85,198.85,0,0,0,47.5-20c31.07-17.8,56.85-41.47,81.32-65.13,12.8-12.37
,25.36-24.76,39.95-35.73a264.22,264.22,0,0,1,45.28-27.54C255,151.59,292,143.14,329.72,141a361.35,361.35,0,
0,1,63,2.14c6.62.78,13.23,1.77,19.77,3V0H.5V317.5A60.1,60.1,0,0,0,8,315.66Z" transform="translate(0.5 0.5)"/>
</svg>