<svg id="Layer_1" data-name="Layer 1" xmlns="http://www.w3.org/2000/svg" viewBox="0 0 1440 2960"><defs><style>.cls-1{fill:#41444f;}.cls-1,.cls-2,.cls-3{stroke:#000;stroke-miterlimit:10;}.cls-2{fill:#61c7ed;}.cls-3{fill:#f5eee7;}</style></defs><title>Background-2</title><path class="cls-1" d="M23.36,1437.67c59.29-20.59,114.75-52.67,166.41-91.15,108.85-81,199.17-188.84,284.93-296.61,44.83-56.34,88.85-112.77,140-162.76,48.62-47.54,101.67-90.2,158.64-125.42C888.69,690.39,1018.15,651.91,1150.47,642c73.55-5.53,147.8-1.43,220.76,9.74,23.18,3.56,46.36,8.06,69.27,13.76V0H.5V1445Q12,1441.63,23.36,1437.67Z"/><path class="cls-2" d="M720.8,2955.22q1.77-12.07,3.41-24.16c0-.2.13-1,.22-1.63s.17-1.29.2-1.53q.4-3,.8-6,.74-5.6,1.44-11.17,3.12-24.39,6-48.79c8-65.23,15.9-130.62,30.07-194.85,14.75-66.84,36.87-132.05,68.42-192.89,22.51-43.4,50.41-83.19,86.54-116.38,33.35-30.63,71.67-55.69,112.35-75.44,42.56-20.67,87.46-36.32,133.24-48.16,47.84-12.37,96.62-20.62,145.63-26.72,43.61-5.42,87.44-8.83,131.33-11v-1537c-45.07-11.19-91.38-17.74-137.51-21.39-70.84-5.62-142-4.93-212.51,4.6-126.61,17.12-247.09,62.51-352.73,134.74C684.22,814.11,635.28,857.1,590.44,904c-47.17,49.32-89.46,103.19-134.88,154.12-87.59,98.22-183.11,193.65-297.95,259.81-49.15,28.32-102,51-157.11,64.85V2960.5H720C720.28,2958.74,720.55,2957,720.8,2955.22Z"/><path class="cls-3" d="M1420.2,2195q-38.34,2.19-76.59,5.8-19.17,1.85-38.3,4.13l-10.23,1.26-4.77.62-.52.07c-6,.88-12.09,1.66-18.13,2.55-50,7.4-99.74,17.53-148.21,32-23.3,6.94-46.31,14.89-68.82,24.06l-3,1.25-1.79.76q-3.81,1.64-7.61,3.31-8.13,3.6-16.14,7.43-15.88,7.6-31.26,16.16t-30.25,18.29q-7.21,4.71-14.25,9.69-3.51,2.49-7,5c-1.15.85-2.3,1.7-3.44,2.56l-.46.36c-17.51,14.37-34.51,28.87-49.92,45.53q-5.81,6.27-11.34,12.81c-1.84,2.19-3.67,4.39-5.46,6.62-.89,1.09-1.76,2.19-2.63,3.29l0,0c-7,9.27-13.65,18.72-19.81,28.54-17.65,28.13-32.58,58.14-45.68,88.6-.22.54-.85,2-1,2.46-.37.88-.74,1.76-1.1,2.65q-1.28,3.09-2.52,6.19-2.29,5.73-4.51,11.5-4.7,12.32-9,24.78-8.59,25-15.57,50.52c-9,32.83-16.15,66.15-22.08,99.66q-4.41,25-8,50.09-1.83,12.47-3.52,25c0,.2-.06.41-.09.66l-.36,2.7q-.42,3.14-.83,6.29-.76,5.85-1.52,11.7c-4.33,33.79-8.28,67.62-12.66,101.4q-3.19,24.6-6.75,49.15h725V2194Q1430.1,2194.48,1420.2,2195Z"/></svg>