<svg id="Layer_1" data-name="Layer 1" xmlns="http://www.w3.org/2000/svg" viewBox="0 0 1475 1547.14"><defs><style>.cls-1{fill:#ffae48;}.cls-1,.cls-2,.cls-3{stroke:#000;stroke-miterlimit:10;}.cls-2{fill:#57bde7;}.cls-3{fill:#4b515b;}</style></defs><title>Welcome_Back2</title><path class="cls-1" d="M24.89,732c9.31-.13,18.62-.54,27.91-1.33Q60.24,730,67.65,729l3.94-.54.84-.13.38-.07c2.28-2.11,15.31-2.34,18.18-3.06,12.26-3.1,19.24-5.14,31.41-8.67,25.33-7.35,45.3-18.29,70.06-27.85q18.3-7.07,36.32-15c6.14-2.72,12.24-5.55,18.34-8.41l1-.49.93-.46,3.63-1.78q4.52-2.24,9-4.54a670.86,670.86,0,0,0,68.09-40q16.46-11,32.28-23.22,8.52-6.56,16.82-13.45,3.56-3,7.08-6l3.9-3.37.17-.15a569.15,569.15,0,0,0,57.48-59.42q13.38-16,25.64-33.27c1.27-1.78,2.53-3.56,3.77-5.36.21-.29.38-.54.53-.76l.37-.67c1.73-3,3.76-5.85,5.65-8.75,4.83-7.43,9.76-14.78,14.72-22.1,31.86-47,67.44-89.37,108.86-125.46,44.6-38.86,94.14-69,148.37-86,52.93-16.58,108-22,162.47-27.32,25.9-2.54,51.82-5.06,77.6-8.94l3.59-.57,6-1c2.67-.47,5.34-.94,8-1.44q10-1.87,19.93-4.11c12.93-2.92,25.76-6.38,38.43-10.53a350.37,350.37,0,0,0,37.71-14.74c.26-.12,6.39-3.13,2.33-1.08,1.58-.8,3.17-1.59,4.75-2.4q4.28-2.19,8.51-4.53,9.53-5.26,18.73-11.21c5.6-3.62,11.14-7.4,16.51-11.43q3-2.28,6-4.68c.94-.77,3.44-2.94,4-3.43a261.51,261.51,0,0,0,23.11-24.13q5.89-7,11.43-14.4,2.81-3.75,5.52-7.58c.73-1,1.46-2.06,2.18-3.09,0,0,1.1-1.63,1.72-2.53l1.73-2.62q1.32-2,2.61-4,2.6-4.09,5.13-8.24,4.57-7.55,8.93-15.27c7.29-12.92,14.1-26.19,20.57-39.68H0V731.64C8.29,731.94,16.59,732.07,24.89,732Z" transform="translate(0.5 -0.5)"/><path class="cls-2" d="M891,1181.25c25.27,25.08,44,54.7,62.68,84.09,8.62,13.56,17.34,27.09,27,40q3.72,5,7.63,9.76,2.43,3-.35-.44c.69.8,1.4,1.6,2.1,2.4,1.06,1.21,2.12,2.41,3.2,3.6q7.56,8.4,15.59,16.44a537.35,537.35,0,0,0,62.41,53.24c1.55,1.14,3.1,2.27,4.67,3.39l1.79,1.26q3.54,2.49,7.12,4.93,8.61,5.88,17.44,11.51,18.51,11.82,37.8,22.57a850.07,850.07,0,0,0,78.35,38.51q10.63,4.57,21.4,8.9c1.65.66,3.29,1.36,5,2-5.56-2,.11,0,1,.4q4.14,1.59,8.29,3.15,20.58,7.71,41.57,14.47c26.47,8.51,53.37,15.88,80.62,21.92,29.26,6.48,58.19,13.86,87.25,21.11,3.47.86,7,1.72,10.44,2.56V581c-45.3,33.88-96.2,61.83-146.44,88.15-82.12,43-165,84.65-235.55,143.59-37,30.89-70.39,65.49-96.22,105-22.63,34.64-37.25,70.15-52.48,107.19-20.68,50.31-39,101.42-59.31,151.84A20.49,20.49,0,0,1,891,1181.25Z" transform="translate(0.5 -0.5)"/><path class="cls-3" d="M66.45,1350.57c30.36,27.38,62.58,50.13,97.19,72.22,73.6,47,152.81,91.47,238.61,112.88,21,5.23,42.25,9.19,63.86,10.65,18.29,1.23,86.11-.82,101.48-5.82,33.77-11,9.26,1.2,69.6-25,82.91-36,67.09-33.76,100.32-58,12.83-9.35,27.25-29.62,39.51-41.75q9.93-9.84,19.14-20.35c5.34-6.09,10.42-12.23,14.27-17.24,43.44-56.59,71.22-120.53,95.72-185.3,26-68.69,48.66-138.6,79.45-205.46,37-80.43,100.13-143.64,172-195.56,65.75-47.47,139.28-82.28,209-123.47,38.08-22.48,75.24-47.33,107.33-77V1H1231.57q-6.48,12.52-13.46,24.79c-21.46,37.52-47.46,74.9-82.09,102-83.09,65-192.9,70.18-294.31,79.26-12.5,1.11-25,2.33-37.46,3.78q-5.37.63-10.74,1.32l-.91.13-4.77.67q-9.08,1.31-18.11,2.84c-25.18,4.33-50.11,10.31-74.16,18.85q-5.1,1.82-10.14,3.77l-2.67,1.06-3.31,1.38q-8.28,3.55-16.36,7.56c-12.1,6-23.72,12.87-35.16,20q-16,10-31.25,21.22c-.31.23-5.11,3.9-1.62,1.19l-2.89,2.23q-3.57,2.78-7.1,5.62-7,5.64-13.73,11.55a515.38,515.38,0,0,0-49.11,49.59q-6.36,7.31-12.5,14.8c-4.33,5.27-6.88,8.48-9.13,11.35-8.58,11-16.77,22.24-25.79,32.89-32,37.75-70.23,70.14-111.81,97.42-81.08,53.19-183.76,89.54-278.58,110.43a2.85,2.85,0,0,0-.44.48,435.11,435.11,0,0,1-64.7,5c-6.26,0-12.52-.1-18.77-.28v652.83C21.4,1307.69,43.35,1329.74,66.45,1350.57Z" transform="translate(0.5 -0.5)"/></svg>